<svg xmlns="http://www.w3.org/2000/svg" width="674" height="242" viewBox="0 0 674 242" fill="none">
<mask id="path-1-outside-1_205_292" maskUnits="userSpaceOnUse" x="0" y="0" width="674" height="242" fill="white">
<path d="M1 241H25.503L32.6368 222.406L71.5021 119.043L115.623 1H95.2999L46.3716 119.043L1 241Z"/>
<path d="M230.246 241H205.743L198.609 222.406L159.744 119.043L115.623 1H135.946L184.875 119.043L230.246 241Z"/>
<path d="M312.538 6.86875V14.0406H293.145V63.1469H285.59V14.0406H266.197V6.86875H312.538Z"/>
<path d="M330.044 6.86875V30.6625H362.114V6.86875H369.67V63.4H362.114V37.8344H330.044V63.4H322.488V6.86875H330.044Z"/>
<path d="M421.344 30.8313V38.0031H393.976V56.2281H424.954V63.4H386.42V6.86875H424.954V14.0406H393.976V30.8313H421.344Z"/>
<path d="M294.572 93.2688L320.85 149.8H311.783L305.906 136.3H279.545L273.584 149.8H264.517L290.795 93.2688H294.572ZM292.809 106.094L282.651 129.128H302.8L292.809 106.094Z"/>
<path d="M350.78 93.2688C354.026 93.2688 357.133 93.8875 360.099 95.125C363.065 96.3063 365.5 98.1625 367.403 100.694C369.362 103.169 370.341 106.347 370.341 110.228C370.341 113.716 369.334 116.669 367.319 119.088C365.36 121.506 362.841 123.334 359.763 124.572C356.741 125.753 353.607 126.344 350.361 126.344C349.353 126.344 348.01 126.288 346.331 126.175L372.524 149.8H360.939L336.76 126.175V149.8H329.205V93.2688H350.78ZM336.76 100.441V118.581C338.607 119.088 340.622 119.481 342.805 119.763C344.988 120.044 347.142 120.184 349.269 120.184C353.523 120.184 356.797 119.284 359.092 117.484C361.442 115.684 362.618 113.266 362.618 110.228C362.618 107.078 361.33 104.659 358.756 102.972C356.237 101.284 353.159 100.441 349.521 100.441H336.76Z"/>
<path d="M420.504 93.2688V100.441H401.111V149.547H393.556V100.441H374.163V93.2688H420.504Z"/>
<path d="M465.379 117.231V124.403H438.01V142.628H468.989V149.8H430.455V93.2688H468.989V100.441H438.01V117.231H465.379Z"/>
<path d="M504.796 93.2688C508.042 93.2688 511.149 93.8875 514.115 95.125C517.081 96.3063 519.516 98.1625 521.419 100.694C523.378 103.169 524.357 106.347 524.357 110.228C524.357 113.716 523.35 116.669 521.335 119.088C519.376 121.506 516.857 123.334 513.779 124.572C510.757 125.753 507.623 126.344 504.376 126.344C503.369 126.344 502.026 126.288 500.347 126.175L526.54 149.8H514.954L490.776 126.175V149.8H483.22V93.2688H504.796ZM490.776 100.441V118.581C492.623 119.088 494.638 119.481 496.821 119.763C499.003 120.044 501.158 120.184 503.285 120.184C507.539 120.184 510.813 119.284 513.107 117.484C515.458 115.684 516.633 113.266 516.633 110.228C516.633 107.078 515.346 104.659 512.772 102.972C510.253 101.284 507.175 100.441 503.537 100.441H490.776Z"/>
<path d="M561.424 142.628V149.8H534.895V142.628H544.381V100.441H534.895V93.2688H561.424V100.441H551.937V142.628H561.424Z"/>
<path d="M599.834 93.2688L626.111 149.8H617.044L611.167 136.3H584.806L578.846 149.8H569.779L596.056 93.2688H599.834ZM598.071 106.094L587.912 129.128H608.061L598.071 106.094Z"/>
<path d="M642.022 93.2688V142.628H673V149.8H634.466V93.2688H642.022Z"/>
<path d="M294.405 205.319H319.171V228.522C317.827 229.984 316.092 231.419 313.965 232.825C311.839 234.175 309.376 235.3 306.578 236.2C303.835 237.044 300.813 237.466 297.511 237.466C293.257 237.466 289.339 236.706 285.757 235.188C282.175 233.613 279.041 231.475 276.355 228.775C273.668 226.075 271.569 222.953 270.058 219.409C268.603 215.809 267.876 211.984 267.876 207.934C267.876 203.884 268.603 200.088 270.058 196.544C271.569 192.944 273.668 189.794 276.355 187.094C279.041 184.394 282.175 182.284 285.757 180.766C289.339 179.191 293.257 178.403 297.511 178.403C301.596 178.403 304.927 178.966 307.501 180.091C310.132 181.216 312.426 182.678 314.385 184.478V192.831C313.154 191.931 311.755 190.947 310.188 189.878C308.676 188.809 306.885 187.881 304.815 187.094C302.8 186.25 300.365 185.828 297.511 185.828C293.313 185.828 289.563 186.784 286.261 188.697C282.959 190.609 280.356 193.253 278.454 196.628C276.551 199.947 275.599 203.716 275.599 207.934C275.599 212.153 276.551 215.922 278.454 219.241C280.356 222.559 282.959 225.203 286.261 227.172C289.563 229.084 293.313 230.041 297.511 230.041C300.365 230.041 302.66 229.759 304.395 229.197C306.13 228.578 307.501 227.903 308.509 227.172C309.516 226.384 310.328 225.738 310.943 225.231L311.027 212.069H294.405V205.319Z"/>
<path d="M351.62 179.669C354.866 179.669 357.972 180.288 360.939 181.525C363.905 182.706 366.339 184.563 368.242 187.094C370.201 189.569 371.181 192.747 371.181 196.628C371.181 200.116 370.173 203.069 368.158 205.488C366.2 207.906 363.681 209.734 360.603 210.972C357.58 212.153 354.446 212.744 351.2 212.744C350.193 212.744 348.849 212.688 347.17 212.575L373.363 236.2H361.778L337.6 212.575V236.2H330.044V179.669H351.62ZM337.6 186.841V204.981C339.447 205.488 341.462 205.881 343.644 206.163C345.827 206.444 347.982 206.584 350.109 206.584C354.362 206.584 357.636 205.684 359.931 203.884C362.282 202.084 363.457 199.666 363.457 196.628C363.457 193.478 362.17 191.059 359.595 189.372C357.077 187.684 353.998 186.841 350.361 186.841H337.6Z"/>
<path d="M402.119 178.403C406.372 178.403 410.29 179.191 413.872 180.766C417.454 182.284 420.588 184.394 423.275 187.094C425.961 189.794 428.032 192.944 429.487 196.544C430.999 200.088 431.754 203.884 431.754 207.934C431.754 211.984 430.999 215.809 429.487 219.409C428.032 222.953 425.961 226.075 423.275 228.775C420.588 231.475 417.454 233.613 413.872 235.188C410.29 236.706 406.372 237.466 402.119 237.466C397.865 237.466 393.948 236.706 390.366 235.188C386.784 233.613 383.649 231.475 380.963 228.775C378.276 226.075 376.178 222.953 374.666 219.409C373.211 215.809 372.484 211.984 372.484 207.934C372.484 203.884 373.211 200.088 374.666 196.544C376.178 192.944 378.276 189.794 380.963 187.094C383.649 184.394 386.784 182.284 390.366 180.766C393.948 179.191 397.865 178.403 402.119 178.403ZM402.119 185.828C397.921 185.828 394.171 186.784 390.869 188.697C387.567 190.609 384.965 193.253 383.062 196.628C381.159 199.947 380.207 203.716 380.207 207.934C380.207 212.153 381.159 215.922 383.062 219.241C384.965 222.559 387.567 225.203 390.869 227.172C394.171 229.084 397.921 230.041 402.119 230.041C406.317 230.041 410.066 229.084 413.369 227.172C416.671 225.203 419.273 222.559 421.176 219.241C423.079 215.922 424.03 212.153 424.03 207.934C424.03 203.716 423.079 199.947 421.176 196.628C419.273 193.253 416.671 190.609 413.369 188.697C410.066 186.784 406.317 185.828 402.119 185.828Z"/>
<path d="M488.969 179.5V213.841C488.969 218.734 487.934 222.953 485.863 226.497C483.848 229.984 481.106 232.656 477.636 234.513C474.166 236.369 470.22 237.297 465.799 237.297C461.433 237.297 457.487 236.369 453.961 234.513C450.491 232.656 447.721 229.984 445.65 226.497C443.635 222.953 442.628 218.734 442.628 213.841V179.5H450.183V213.588C450.183 217.413 450.883 220.506 452.282 222.869C453.737 225.231 455.64 226.947 457.991 228.016C460.398 229.028 463 229.534 465.799 229.534C468.597 229.478 471.171 228.944 473.522 227.931C475.929 226.863 477.832 225.175 479.231 222.869C480.686 220.506 481.414 217.413 481.414 213.588V179.5H488.969Z"/>
<path d="M527.295 179.669C530.542 179.669 533.648 180.428 536.614 181.947C539.58 183.409 542.015 185.547 543.918 188.359C545.877 191.116 546.856 194.434 546.856 198.316C546.856 201.634 545.933 204.7 544.086 207.513C542.239 210.325 539.72 212.603 536.53 214.347C533.396 216.034 529.898 216.878 526.036 216.878C523.182 216.878 520.551 216.597 518.145 216.034C515.794 215.416 513.891 214.769 512.436 214.094V236.2H504.88V179.669H527.295ZM512.436 186.841V207.175C513.947 207.794 515.906 208.384 518.312 208.947C520.775 209.453 523.266 209.706 525.784 209.706C530.038 209.706 533.312 208.609 535.607 206.416C537.957 204.166 539.133 201.466 539.133 198.316C539.133 195.897 538.461 193.844 537.118 192.156C535.831 190.469 534.124 189.175 531.997 188.275C529.87 187.319 527.603 186.841 525.197 186.841H512.436Z"/>
</mask>
<path d="M1 241H25.503L32.6368 222.406L71.5021 119.043L115.623 1H95.2999L46.3716 119.043L1 241Z" fill="white"/>
<path d="M230.246 241H205.743L198.609 222.406L159.744 119.043L115.623 1H135.946L184.875 119.043L230.246 241Z" fill="white"/>
<path d="M312.538 6.86875V14.0406H293.145V63.1469H285.59V14.0406H266.197V6.86875H312.538Z" fill="white"/>
<path d="M330.044 6.86875V30.6625H362.114V6.86875H369.67V63.4H362.114V37.8344H330.044V63.4H322.488V6.86875H330.044Z" fill="white"/>
<path d="M421.344 30.8313V38.0031H393.976V56.2281H424.954V63.4H386.42V6.86875H424.954V14.0406H393.976V30.8313H421.344Z" fill="white"/>
<path d="M294.572 93.2688L320.85 149.8H311.783L305.906 136.3H279.545L273.584 149.8H264.517L290.795 93.2688H294.572ZM292.809 106.094L282.651 129.128H302.8L292.809 106.094Z" fill="white"/>
<path d="M350.78 93.2688C354.026 93.2688 357.133 93.8875 360.099 95.125C363.065 96.3063 365.5 98.1625 367.403 100.694C369.362 103.169 370.341 106.347 370.341 110.228C370.341 113.716 369.334 116.669 367.319 119.088C365.36 121.506 362.841 123.334 359.763 124.572C356.741 125.753 353.607 126.344 350.361 126.344C349.353 126.344 348.01 126.288 346.331 126.175L372.524 149.8H360.939L336.76 126.175V149.8H329.205V93.2688H350.78ZM336.76 100.441V118.581C338.607 119.088 340.622 119.481 342.805 119.763C344.988 120.044 347.142 120.184 349.269 120.184C353.523 120.184 356.797 119.284 359.092 117.484C361.442 115.684 362.618 113.266 362.618 110.228C362.618 107.078 361.33 104.659 358.756 102.972C356.237 101.284 353.159 100.441 349.521 100.441H336.76Z" fill="white"/>
<path d="M420.504 93.2688V100.441H401.111V149.547H393.556V100.441H374.163V93.2688H420.504Z" fill="white"/>
<path d="M465.379 117.231V124.403H438.01V142.628H468.989V149.8H430.455V93.2688H468.989V100.441H438.01V117.231H465.379Z" fill="white"/>
<path d="M504.796 93.2688C508.042 93.2688 511.149 93.8875 514.115 95.125C517.081 96.3063 519.516 98.1625 521.419 100.694C523.378 103.169 524.357 106.347 524.357 110.228C524.357 113.716 523.35 116.669 521.335 119.088C519.376 121.506 516.857 123.334 513.779 124.572C510.757 125.753 507.623 126.344 504.376 126.344C503.369 126.344 502.026 126.288 500.347 126.175L526.54 149.8H514.954L490.776 126.175V149.8H483.22V93.2688H504.796ZM490.776 100.441V118.581C492.623 119.088 494.638 119.481 496.821 119.763C499.003 120.044 501.158 120.184 503.285 120.184C507.539 120.184 510.813 119.284 513.107 117.484C515.458 115.684 516.633 113.266 516.633 110.228C516.633 107.078 515.346 104.659 512.772 102.972C510.253 101.284 507.175 100.441 503.537 100.441H490.776Z" fill="white"/>
<path d="M561.424 142.628V149.8H534.895V142.628H544.381V100.441H534.895V93.2688H561.424V100.441H551.937V142.628H561.424Z" fill="white"/>
<path d="M599.834 93.2688L626.111 149.8H617.044L611.167 136.3H584.806L578.846 149.8H569.779L596.056 93.2688H599.834ZM598.071 106.094L587.912 129.128H608.061L598.071 106.094Z" fill="white"/>
<path d="M642.022 93.2688V142.628H673V149.8H634.466V93.2688H642.022Z" fill="white"/>
<path d="M294.405 205.319H319.171V228.522C317.827 229.984 316.092 231.419 313.965 232.825C311.839 234.175 309.376 235.3 306.578 236.2C303.835 237.044 300.813 237.466 297.511 237.466C293.257 237.466 289.339 236.706 285.757 235.188C282.175 233.613 279.041 231.475 276.355 228.775C273.668 226.075 271.569 222.953 270.058 219.409C268.603 215.809 267.876 211.984 267.876 207.934C267.876 203.884 268.603 200.088 270.058 196.544C271.569 192.944 273.668 189.794 276.355 187.094C279.041 184.394 282.175 182.284 285.757 180.766C289.339 179.191 293.257 178.403 297.511 178.403C301.596 178.403 304.927 178.966 307.501 180.091C310.132 181.216 312.426 182.678 314.385 184.478V192.831C313.154 191.931 311.755 190.947 310.188 189.878C308.676 188.809 306.885 187.881 304.815 187.094C302.8 186.25 300.365 185.828 297.511 185.828C293.313 185.828 289.563 186.784 286.261 188.697C282.959 190.609 280.356 193.253 278.454 196.628C276.551 199.947 275.599 203.716 275.599 207.934C275.599 212.153 276.551 215.922 278.454 219.241C280.356 222.559 282.959 225.203 286.261 227.172C289.563 229.084 293.313 230.041 297.511 230.041C300.365 230.041 302.66 229.759 304.395 229.197C306.13 228.578 307.501 227.903 308.509 227.172C309.516 226.384 310.328 225.738 310.943 225.231L311.027 212.069H294.405V205.319Z" fill="white"/>
<path d="M351.62 179.669C354.866 179.669 357.972 180.288 360.939 181.525C363.905 182.706 366.339 184.563 368.242 187.094C370.201 189.569 371.181 192.747 371.181 196.628C371.181 200.116 370.173 203.069 368.158 205.488C366.2 207.906 363.681 209.734 360.603 210.972C357.58 212.153 354.446 212.744 351.2 212.744C350.193 212.744 348.849 212.688 347.17 212.575L373.363 236.2H361.778L337.6 212.575V236.2H330.044V179.669H351.62ZM337.6 186.841V204.981C339.447 205.488 341.462 205.881 343.644 206.163C345.827 206.444 347.982 206.584 350.109 206.584C354.362 206.584 357.636 205.684 359.931 203.884C362.282 202.084 363.457 199.666 363.457 196.628C363.457 193.478 362.17 191.059 359.595 189.372C357.077 187.684 353.998 186.841 350.361 186.841H337.6Z" fill="white"/>
<path d="M402.119 178.403C406.372 178.403 410.29 179.191 413.872 180.766C417.454 182.284 420.588 184.394 423.275 187.094C425.961 189.794 428.032 192.944 429.487 196.544C430.999 200.088 431.754 203.884 431.754 207.934C431.754 211.984 430.999 215.809 429.487 219.409C428.032 222.953 425.961 226.075 423.275 228.775C420.588 231.475 417.454 233.613 413.872 235.188C410.29 236.706 406.372 237.466 402.119 237.466C397.865 237.466 393.948 236.706 390.366 235.188C386.784 233.613 383.649 231.475 380.963 228.775C378.276 226.075 376.178 222.953 374.666 219.409C373.211 215.809 372.484 211.984 372.484 207.934C372.484 203.884 373.211 200.088 374.666 196.544C376.178 192.944 378.276 189.794 380.963 187.094C383.649 184.394 386.784 182.284 390.366 180.766C393.948 179.191 397.865 178.403 402.119 178.403ZM402.119 185.828C397.921 185.828 394.171 186.784 390.869 188.697C387.567 190.609 384.965 193.253 383.062 196.628C381.159 199.947 380.207 203.716 380.207 207.934C380.207 212.153 381.159 215.922 383.062 219.241C384.965 222.559 387.567 225.203 390.869 227.172C394.171 229.084 397.921 230.041 402.119 230.041C406.317 230.041 410.066 229.084 413.369 227.172C416.671 225.203 419.273 222.559 421.176 219.241C423.079 215.922 424.03 212.153 424.03 207.934C424.03 203.716 423.079 199.947 421.176 196.628C419.273 193.253 416.671 190.609 413.369 188.697C410.066 186.784 406.317 185.828 402.119 185.828Z" fill="white"/>
<path d="M488.969 179.5V213.841C488.969 218.734 487.934 222.953 485.863 226.497C483.848 229.984 481.106 232.656 477.636 234.513C474.166 236.369 470.22 237.297 465.799 237.297C461.433 237.297 457.487 236.369 453.961 234.513C450.491 232.656 447.721 229.984 445.65 226.497C443.635 222.953 442.628 218.734 442.628 213.841V179.5H450.183V213.588C450.183 217.413 450.883 220.506 452.282 222.869C453.737 225.231 455.64 226.947 457.991 228.016C460.398 229.028 463 229.534 465.799 229.534C468.597 229.478 471.171 228.944 473.522 227.931C475.929 226.863 477.832 225.175 479.231 222.869C480.686 220.506 481.414 217.413 481.414 213.588V179.5H488.969Z" fill="white"/>
<path d="M527.295 179.669C530.542 179.669 533.648 180.428 536.614 181.947C539.58 183.409 542.015 185.547 543.918 188.359C545.877 191.116 546.856 194.434 546.856 198.316C546.856 201.634 545.933 204.7 544.086 207.513C542.239 210.325 539.72 212.603 536.53 214.347C533.396 216.034 529.898 216.878 526.036 216.878C523.182 216.878 520.551 216.597 518.145 216.034C515.794 215.416 513.891 214.769 512.436 214.094V236.2H504.88V179.669H527.295ZM512.436 186.841V207.175C513.947 207.794 515.906 208.384 518.312 208.947C520.775 209.453 523.266 209.706 525.784 209.706C530.038 209.706 533.312 208.609 535.607 206.416C537.957 204.166 539.133 201.466 539.133 198.316C539.133 195.897 538.461 193.844 537.118 192.156C535.831 190.469 534.124 189.175 531.997 188.275C529.87 187.319 527.603 186.841 525.197 186.841H512.436Z" fill="white"/>
<path d="M1 241L0.906276 240.965L0.856101 241.1H1V241ZM25.503 241V241.1H25.5717L25.5964 241.036L25.503 241ZM32.6368 222.406L32.7302 222.442L32.7304 222.441L32.6368 222.406ZM71.5021 119.043L71.5957 119.078L71.5958 119.078L71.5021 119.043ZM95.2999 1V0.9H95.233L95.2075 0.961709L95.2999 1ZM46.3716 119.043L46.2792 119.005L46.2779 119.008L46.3716 119.043ZM230.246 241V241.1H230.39L230.34 240.965L230.246 241ZM205.743 241L205.65 241.036L205.674 241.1H205.743V241ZM198.609 222.406L198.516 222.441L198.516 222.442L198.609 222.406ZM159.744 119.043L159.65 119.078L159.65 119.078L159.744 119.043ZM135.946 1L136.039 0.961709L136.013 0.9H135.946V1ZM184.875 119.043L184.968 119.008L184.967 119.005L184.875 119.043ZM312.538 6.86875H312.638V6.76875H312.538V6.86875ZM312.538 14.0406V14.1406H312.638V14.0406H312.538ZM293.145 14.0406V13.9406H293.045V14.0406H293.145ZM293.145 63.1469V63.2469H293.245V63.1469H293.145ZM285.59 63.1469H285.49V63.2469H285.59V63.1469ZM285.59 14.0406H285.69V13.9406H285.59V14.0406ZM266.197 14.0406H266.096V14.1406H266.197V14.0406ZM266.197 6.86875V6.76875H266.096V6.86875H266.197ZM330.044 6.86875H330.144V6.76875H330.044V6.86875ZM330.044 30.6625H329.944V30.7625H330.044V30.6625ZM362.114 30.6625V30.7625H362.214V30.6625H362.114ZM362.114 6.86875V6.76875H362.014V6.86875H362.114ZM369.67 6.86875H369.77V6.76875H369.67V6.86875ZM369.67 63.4V63.5H369.77V63.4H369.67ZM362.114 63.4H362.014V63.5H362.114V63.4ZM362.114 37.8344H362.214V37.7344H362.114V37.8344ZM330.044 37.8344V37.7344H329.944V37.8344H330.044ZM330.044 63.4V63.5H330.144V63.4H330.044ZM322.488 63.4H322.388V63.5H322.488V63.4ZM322.488 6.86875V6.76875H322.388V6.86875H322.488ZM421.344 30.8313H421.444V30.7313H421.344V30.8313ZM421.344 38.0031V38.1031H421.444V38.0031H421.344ZM393.975 38.0031V37.9031H393.876V38.0031H393.975ZM393.975 56.2281H393.876V56.3281H393.975V56.2281ZM424.954 56.2281H425.054V56.1281H424.954V56.2281ZM424.954 63.4V63.5H425.054V63.4H424.954ZM386.42 63.4H386.32V63.5H386.42V63.4ZM386.42 6.86875V6.76875H386.32V6.86875H386.42ZM424.954 6.86875H425.054V6.76875H424.954V6.86875ZM424.954 14.0406V14.1406H425.054V14.0406H424.954ZM393.975 14.0406V13.9406H393.876V14.0406H393.975ZM393.975 30.8313H393.876V30.9313H393.975V30.8313ZM294.572 93.2688L294.663 93.2266L294.636 93.1688H294.572V93.2688ZM320.85 149.8V149.9H321.006L320.94 149.758L320.85 149.8ZM311.783 149.8L311.691 149.84L311.717 149.9H311.783V149.8ZM305.906 136.3L305.998 136.26L305.972 136.2H305.906V136.3ZM279.545 136.3V136.2H279.48L279.453 136.26L279.545 136.3ZM273.584 149.8V149.9H273.649L273.676 149.84L273.584 149.8ZM264.517 149.8L264.427 149.758L264.361 149.9H264.517V149.8ZM290.795 93.2688V93.1688H290.731L290.704 93.2266L290.795 93.2688ZM292.809 106.094L292.901 106.054L292.81 105.844L292.718 106.053L292.809 106.094ZM282.651 129.128L282.56 129.088L282.498 129.228H282.651V129.128ZM302.8 129.128V129.228H302.952L302.892 129.088L302.8 129.128ZM360.099 95.125L360.061 95.2173L360.062 95.2179L360.099 95.125ZM367.403 100.694L367.323 100.754L367.324 100.756L367.403 100.694ZM367.319 119.088L367.242 119.023L367.241 119.025L367.319 119.088ZM359.763 124.572L359.8 124.665L359.801 124.665L359.763 124.572ZM346.331 126.175L346.337 126.075L346.049 126.056L346.264 126.249L346.331 126.175ZM372.524 149.8V149.9H372.784L372.591 149.726L372.524 149.8ZM360.939 149.8L360.869 149.872L360.898 149.9H360.939V149.8ZM336.76 126.175L336.83 126.103L336.66 125.937V126.175H336.76ZM336.76 149.8V149.9H336.86V149.8H336.76ZM329.204 149.8H329.104V149.9H329.204V149.8ZM329.204 93.2688V93.1688H329.104V93.2688H329.204ZM336.76 100.441V100.341H336.66V100.441H336.76ZM336.76 118.581H336.66V118.658L336.734 118.678L336.76 118.581ZM359.092 117.484L359.031 117.405L359.03 117.406L359.092 117.484ZM358.756 102.972L358.7 103.055L358.701 103.056L358.756 102.972ZM420.504 93.2688H420.604V93.1688H420.504V93.2688ZM420.504 100.441V100.541H420.604V100.441H420.504ZM401.111 100.441V100.341H401.011V100.441H401.111ZM401.111 149.547V149.647H401.211V149.547H401.111ZM393.556 149.547H393.456V149.647H393.556V149.547ZM393.556 100.441H393.656V100.341H393.556V100.441ZM374.163 100.441H374.063V100.541H374.163V100.441ZM374.163 93.2688V93.1688H374.063V93.2688H374.163ZM465.379 117.231H465.479V117.131H465.379V117.231ZM465.379 124.403V124.503H465.479V124.403H465.379ZM438.01 124.403V124.303H437.91V124.403H438.01ZM438.01 142.628H437.91V142.728H438.01V142.628ZM468.989 142.628H469.089V142.528H468.989V142.628ZM468.989 149.8V149.9H469.089V149.8H468.989ZM430.455 149.8H430.355V149.9H430.455V149.8ZM430.455 93.2688V93.1688H430.355V93.2688H430.455ZM468.989 93.2688H469.089V93.1688H468.989V93.2688ZM468.989 100.441V100.541H469.089V100.441H468.989ZM438.01 100.441V100.341H437.91V100.441H438.01ZM438.01 117.231H437.91V117.331H438.01V117.231ZM514.115 95.125L514.076 95.2173L514.078 95.2179L514.115 95.125ZM521.419 100.694L521.339 100.754L521.34 100.756L521.419 100.694ZM521.335 119.088L521.258 119.023L521.257 119.025L521.335 119.088ZM513.779 124.572L513.815 124.665L513.816 124.665L513.779 124.572ZM500.347 126.175L500.353 126.075L500.065 126.056L500.28 126.249L500.347 126.175ZM526.54 149.8V149.9H526.8L526.607 149.726L526.54 149.8ZM514.954 149.8L514.884 149.872L514.914 149.9H514.954V149.8ZM490.776 126.175L490.846 126.103L490.676 125.937V126.175H490.776ZM490.776 149.8V149.9H490.876V149.8H490.776ZM483.22 149.8H483.12V149.9H483.22V149.8ZM483.22 93.2688V93.1688H483.12V93.2688H483.22ZM490.776 100.441V100.341H490.676V100.441H490.776ZM490.776 118.581H490.676V118.658L490.75 118.678L490.776 118.581ZM513.107 117.484L513.047 117.405L513.046 117.406L513.107 117.484ZM512.772 102.972L512.716 103.055L512.717 103.056L512.772 102.972ZM561.424 142.628H561.524V142.528H561.424V142.628ZM561.424 149.8V149.9H561.524V149.8H561.424ZM534.895 149.8H534.795V149.9H534.895V149.8ZM534.895 142.628V142.528H534.795V142.628H534.895ZM544.381 142.628V142.728H544.481V142.628H544.381ZM544.381 100.441H544.481V100.341H544.381V100.441ZM534.895 100.441H534.795V100.541H534.895V100.441ZM534.895 93.2688V93.1688H534.795V93.2688H534.895ZM561.424 93.2688H561.524V93.1688H561.424V93.2688ZM561.424 100.441V100.541H561.524V100.441H561.424ZM551.937 100.441V100.341H551.837V100.441H551.937ZM551.937 142.628H551.837V142.728H551.937V142.628ZM599.834 93.2688L599.924 93.2266L599.897 93.1688H599.834V93.2688ZM626.111 149.8V149.9H626.268L626.201 149.758L626.111 149.8ZM617.044 149.8L616.952 149.84L616.978 149.9H617.044V149.8ZM611.167 136.3L611.259 136.26L611.233 136.2H611.167V136.3ZM584.806 136.3V136.2H584.741L584.715 136.26L584.806 136.3ZM578.846 149.8V149.9H578.911L578.937 149.84L578.846 149.8ZM569.779 149.8L569.688 149.758L569.622 149.9H569.779V149.8ZM596.056 93.2688V93.1688H595.992L595.965 93.2266L596.056 93.2688ZM598.071 106.094L598.162 106.054L598.071 105.844L597.979 106.053L598.071 106.094ZM587.912 129.128L587.821 129.088L587.759 129.228H587.912V129.128ZM608.061 129.128V129.228H608.213L608.153 129.088L608.061 129.128ZM642.021 93.2688H642.122V93.1688H642.021V93.2688ZM642.021 142.628H641.922V142.728H642.021V142.628ZM673 142.628H673.1V142.528H673V142.628ZM673 149.8V149.9H673.1V149.8H673ZM634.466 149.8H634.366V149.9H634.466V149.8ZM634.466 93.2688V93.1688H634.366V93.2688H634.466ZM294.405 205.319V205.219H294.305V205.319H294.405ZM319.171 205.319H319.271V205.219H319.171V205.319ZM319.171 228.522L319.244 228.59L319.271 228.561V228.522H319.171ZM313.965 232.825L314.019 232.909L314.021 232.908L313.965 232.825ZM306.578 236.2L306.607 236.296L306.608 236.295L306.578 236.2ZM285.757 235.188L285.717 235.279L285.718 235.28L285.757 235.188ZM270.058 219.409L269.966 219.447L269.966 219.449L270.058 219.409ZM270.058 196.544L269.966 196.505L269.966 196.506L270.058 196.544ZM285.757 180.766L285.796 180.858L285.798 180.857L285.757 180.766ZM307.501 180.091L307.461 180.182L307.462 180.183L307.501 180.091ZM314.385 184.478H314.485V184.434L314.453 184.404L314.385 184.478ZM314.385 192.831L314.326 192.912L314.485 193.028V192.831H314.385ZM310.188 189.878L310.13 189.96L310.131 189.961L310.188 189.878ZM304.815 187.094L304.776 187.186L304.779 187.187L304.815 187.094ZM278.454 196.628L278.54 196.678L278.541 196.677L278.454 196.628ZM286.261 227.172L286.21 227.258L286.211 227.258L286.261 227.172ZM304.395 229.197L304.426 229.292L304.428 229.291L304.395 229.197ZM308.509 227.172L308.567 227.253L308.57 227.251L308.509 227.172ZM310.943 225.231L311.007 225.309L311.043 225.279L311.043 225.232L310.943 225.231ZM311.027 212.069L311.127 212.069L311.128 211.969H311.027V212.069ZM294.405 212.069H294.305V212.169H294.405V212.069ZM360.939 181.525L360.9 181.617L360.902 181.618L360.939 181.525ZM368.242 187.094L368.162 187.154L368.164 187.156L368.242 187.094ZM368.158 205.488L368.082 205.423L368.081 205.425L368.158 205.488ZM360.603 210.972L360.639 211.065L360.64 211.065L360.603 210.972ZM347.17 212.575L347.177 212.475L346.889 212.456L347.103 212.649L347.17 212.575ZM373.363 236.2V236.3H373.624L373.43 236.126L373.363 236.2ZM361.778 236.2L361.708 236.272L361.737 236.3H361.778V236.2ZM337.6 212.575L337.67 212.503L337.5 212.337V212.575H337.6ZM337.6 236.2V236.3H337.7V236.2H337.6ZM330.044 236.2H329.944V236.3H330.044V236.2ZM330.044 179.669V179.569H329.944V179.669H330.044ZM337.6 186.841V186.741H337.5V186.841H337.6ZM337.6 204.981H337.5V205.058L337.573 205.078L337.6 204.981ZM359.931 203.884L359.87 203.805L359.869 203.806L359.931 203.884ZM359.595 189.372L359.54 189.455L359.54 189.456L359.595 189.372ZM413.872 180.766L413.832 180.857L413.833 180.858L413.872 180.766ZM429.487 196.544L429.395 196.581L429.395 196.583L429.487 196.544ZM429.487 219.409L429.395 219.371L429.395 219.371L429.487 219.409ZM413.872 235.188L413.911 235.28L413.912 235.279L413.872 235.188ZM390.366 235.188L390.325 235.279L390.327 235.28L390.366 235.188ZM374.666 219.409L374.574 219.447L374.574 219.449L374.666 219.409ZM374.666 196.544L374.574 196.505L374.574 196.506L374.666 196.544ZM390.366 180.766L390.405 180.858L390.406 180.857L390.366 180.766ZM383.062 196.628L383.148 196.678L383.149 196.677L383.062 196.628ZM390.869 227.172L390.818 227.258L390.819 227.258L390.869 227.172ZM413.369 227.172L413.419 227.258L413.42 227.258L413.369 227.172ZM421.176 196.628L421.089 196.677L421.089 196.678L421.176 196.628ZM488.969 179.5H489.069V179.4H488.969V179.5ZM485.863 226.497L485.777 226.446L485.777 226.447L485.863 226.497ZM453.961 234.513L453.914 234.601L453.915 234.601L453.961 234.513ZM445.65 226.497L445.563 226.546L445.564 226.548L445.65 226.497ZM442.628 179.5V179.4H442.528V179.5H442.628ZM450.183 179.5H450.283V179.4H450.183V179.5ZM452.282 222.869L452.196 222.92L452.197 222.921L452.282 222.869ZM457.991 228.016L457.95 228.107L457.952 228.108L457.991 228.016ZM465.799 229.534V229.634L465.801 229.634L465.799 229.534ZM473.522 227.931L473.562 228.023L473.563 228.023L473.522 227.931ZM479.231 222.869L479.146 222.816L479.145 222.817L479.231 222.869ZM481.414 179.5V179.4H481.314V179.5H481.414ZM536.614 181.947L536.569 182.036L536.57 182.037L536.614 181.947ZM543.918 188.359L543.835 188.415L543.836 188.417L543.918 188.359ZM536.53 214.347L536.578 214.435L536.578 214.435L536.53 214.347ZM518.145 216.034L518.119 216.131L518.122 216.132L518.145 216.034ZM512.436 214.094L512.478 214.003L512.336 213.937V214.094H512.436ZM512.436 236.2V236.3H512.536V236.2H512.436ZM504.88 236.2H504.78V236.3H504.88V236.2ZM504.88 179.669V179.569H504.78V179.669H504.88ZM512.436 186.841V186.741H512.336V186.841H512.436ZM512.436 207.175H512.336V207.242L512.398 207.268L512.436 207.175ZM518.312 208.947L518.29 209.044L518.292 209.045L518.312 208.947ZM535.607 206.416L535.676 206.488V206.488L535.607 206.416ZM537.118 192.156L537.038 192.217L537.04 192.219L537.118 192.156ZM531.997 188.275L531.956 188.366L531.958 188.367L531.997 188.275ZM1 241.1H25.503V240.9H1V241.1ZM25.5964 241.036L32.7302 222.442L32.5435 222.37L25.4096 240.964L25.5964 241.036ZM32.7304 222.441L71.5957 119.078L71.4085 119.008L32.5432 222.371L32.7304 222.441ZM71.5958 119.078L115.717 1.03501L115.529 0.964989L71.4085 119.008L71.5958 119.078ZM115.623 0.9H95.2999V1.1H115.623V0.9ZM95.2075 0.961709L46.2793 119.005L46.464 119.081L95.3922 1.03829L95.2075 0.961709ZM46.2779 119.008L0.906276 240.965L1.09372 241.035L46.4654 119.078L46.2779 119.008ZM230.246 240.9H205.743V241.1H230.246V240.9ZM205.837 240.964L198.703 222.37L198.516 222.442L205.65 241.036L205.837 240.964ZM198.703 222.371L159.838 119.008L159.65 119.078L198.516 222.441L198.703 222.371ZM159.838 119.008L115.717 0.964989L115.529 1.03501L159.65 119.078L159.838 119.008ZM115.623 1.1H135.946V0.9H115.623V1.1ZM135.854 1.03829L184.782 119.081L184.967 119.005L136.039 0.961709L135.854 1.03829ZM184.781 119.078L230.152 241.035L230.34 240.965L184.968 119.008L184.781 119.078ZM312.438 6.86875V14.0406H312.638V6.86875H312.438ZM312.538 13.9406H293.145V14.1406H312.538V13.9406ZM293.045 14.0406V63.1469H293.245V14.0406H293.045ZM293.145 63.0469H285.59V63.2469H293.145V63.0469ZM285.69 63.1469V14.0406H285.49V63.1469H285.69ZM285.59 13.9406H266.197V14.1406H285.59V13.9406ZM266.297 14.0406V6.86875H266.096V14.0406H266.297ZM266.197 6.96875H312.538V6.76875H266.197V6.96875ZM329.944 6.86875V30.6625H330.144V6.86875H329.944ZM330.044 30.7625H362.114V30.5625H330.044V30.7625ZM362.214 30.6625V6.86875H362.014V30.6625H362.214ZM362.114 6.96875H369.67V6.76875H362.114V6.96875ZM369.57 6.86875V63.4H369.77V6.86875H369.57ZM369.67 63.3H362.114V63.5H369.67V63.3ZM362.214 63.4V37.8344H362.014V63.4H362.214ZM362.114 37.7344H330.044V37.9344H362.114V37.7344ZM329.944 37.8344V63.4H330.144V37.8344H329.944ZM330.044 63.3H322.488V63.5H330.044V63.3ZM322.588 63.4V6.86875H322.388V63.4H322.588ZM322.488 6.96875H330.044V6.76875H322.488V6.96875ZM421.244 30.8313V38.0031H421.444V30.8313H421.244ZM421.344 37.9031H393.975V38.1031H421.344V37.9031ZM393.876 38.0031V56.2281H394.076V38.0031H393.876ZM393.975 56.3281H424.954V56.1281H393.975V56.3281ZM424.854 56.2281V63.4H425.054V56.2281H424.854ZM424.954 63.3H386.42V63.5H424.954V63.3ZM386.52 63.4V6.86875H386.32V63.4H386.52ZM386.42 6.96875H424.954V6.76875H386.42V6.96875ZM424.854 6.86875V14.0406H425.054V6.86875H424.854ZM424.954 13.9406H393.975V14.1406H424.954V13.9406ZM393.876 14.0406V30.8313H394.076V14.0406H393.876ZM393.975 30.9313H421.344V30.7313H393.975V30.9313ZM294.482 93.3109L320.759 149.842L320.94 149.758L294.663 93.2266L294.482 93.3109ZM320.85 149.7H311.783V149.9H320.85V149.7ZM311.874 149.76L305.998 136.26L305.814 136.34L311.691 149.84L311.874 149.76ZM305.906 136.2H279.545V136.4H305.906V136.2ZM279.453 136.26L273.493 149.76L273.676 149.84L279.636 136.34L279.453 136.26ZM273.584 149.7H264.517V149.9H273.584V149.7ZM264.608 149.842L290.885 93.3109L290.704 93.2266L264.427 149.758L264.608 149.842ZM290.795 93.3688H294.572V93.1688H290.795V93.3688ZM292.718 106.053L282.56 129.088L282.743 129.168L292.901 106.134L292.718 106.053ZM282.651 129.228H302.8V129.028H282.651V129.228ZM302.892 129.088L292.901 106.054L292.718 106.134L302.708 129.168L302.892 129.088ZM350.78 93.3688C354.013 93.3688 357.107 93.9849 360.061 95.2173L360.138 95.0327C357.159 93.7901 354.04 93.1688 350.78 93.1688V93.3688ZM360.062 95.2179C363.011 96.3924 365.431 98.2374 367.323 100.754L367.483 100.634C365.569 98.0876 363.119 96.2201 360.136 95.0321L360.062 95.2179ZM367.324 100.756C369.266 103.209 370.241 106.364 370.241 110.228H370.441C370.441 106.33 369.457 103.128 367.481 100.632L367.324 100.756ZM370.241 110.228C370.241 113.695 369.24 116.625 367.242 119.023L367.396 119.152C369.427 116.713 370.441 113.736 370.441 110.228H370.241ZM367.241 119.025C365.294 121.429 362.789 123.248 359.726 124.479L359.801 124.665C362.893 123.421 365.426 121.583 367.397 119.15L367.241 119.025ZM359.727 124.479C356.716 125.655 353.594 126.244 350.361 126.244V126.444C353.619 126.444 356.766 125.851 359.8 124.665L359.727 124.479ZM350.361 126.244C349.356 126.244 348.016 126.188 346.337 126.075L346.324 126.275C348.004 126.387 349.35 126.444 350.361 126.444V126.244ZM346.264 126.249L372.457 149.874L372.591 149.726L346.398 126.101L346.264 126.249ZM372.524 149.7H360.939V149.9H372.524V149.7ZM361.008 149.728L336.83 126.103L336.69 126.247L360.869 149.872L361.008 149.728ZM336.66 126.175V149.8H336.86V126.175H336.66ZM336.76 149.7H329.204V149.9H336.76V149.7ZM329.305 149.8V93.2688H329.104V149.8H329.305ZM329.204 93.3688H350.78V93.1688H329.204V93.3688ZM336.66 100.441V118.581H336.86V100.441H336.66ZM336.734 118.678C338.586 119.185 340.605 119.58 342.792 119.862L342.818 119.663C340.639 119.383 338.629 118.99 336.787 118.485L336.734 118.678ZM342.792 119.862C344.979 120.143 347.138 120.284 349.269 120.284V120.084C347.147 120.084 344.996 119.944 342.818 119.663L342.792 119.862ZM349.269 120.284C353.535 120.284 356.835 119.382 359.153 117.563L359.03 117.406C356.759 119.187 353.51 120.084 349.269 120.084V120.284ZM359.152 117.564C361.529 115.744 362.718 113.296 362.718 110.228H362.518C362.518 113.235 361.356 115.624 359.031 117.405L359.152 117.564ZM362.718 110.228C362.718 107.045 361.414 104.595 358.811 102.888L358.701 103.056C361.247 104.724 362.518 107.111 362.518 110.228H362.718ZM358.811 102.889C356.273 101.188 353.175 100.341 349.521 100.341V100.541C353.143 100.541 356.201 101.381 358.7 103.055L358.811 102.889ZM349.521 100.341H336.76V100.541H349.521V100.341ZM420.404 93.2688V100.441H420.604V93.2688H420.404ZM420.504 100.341H401.111V100.541H420.504V100.341ZM401.011 100.441V149.547H401.211V100.441H401.011ZM401.111 149.447H393.556V149.647H401.111V149.447ZM393.656 149.547V100.441H393.456V149.547H393.656ZM393.556 100.341H374.163V100.541H393.556V100.341ZM374.263 100.441V93.2688H374.063V100.441H374.263ZM374.163 93.3688H420.504V93.1688H374.163V93.3688ZM465.279 117.231V124.403H465.479V117.231H465.279ZM465.379 124.303H438.01V124.503H465.379V124.303ZM437.91 124.403V142.628H438.11V124.403H437.91ZM438.01 142.728H468.989V142.528H438.01V142.728ZM468.889 142.628V149.8H469.089V142.628H468.889ZM468.989 149.7H430.455V149.9H468.989V149.7ZM430.555 149.8V93.2688H430.355V149.8H430.555ZM430.455 93.3688H468.989V93.1688H430.455V93.3688ZM468.889 93.2688V100.441H469.089V93.2688H468.889ZM468.989 100.341H438.01V100.541H468.989V100.341ZM437.91 100.441V117.231H438.11V100.441H437.91ZM438.01 117.331H465.379V117.131H438.01V117.331ZM504.796 93.3688C508.029 93.3688 511.122 93.9849 514.076 95.2173L514.153 95.0327C511.175 93.7901 508.055 93.1688 504.796 93.1688V93.3688ZM514.078 95.2179C517.027 96.3924 519.447 98.2374 521.339 100.754L521.499 100.634C519.585 98.0876 517.135 96.2201 514.152 95.0321L514.078 95.2179ZM521.34 100.756C523.282 103.209 524.257 106.364 524.257 110.228H524.457C524.457 106.33 523.473 103.128 521.497 100.632L521.34 100.756ZM524.257 110.228C524.257 113.695 523.256 116.625 521.258 119.023L521.412 119.152C523.443 116.713 524.457 113.736 524.457 110.228H524.257ZM521.257 119.025C519.31 121.429 516.805 123.248 513.742 124.479L513.816 124.665C516.909 123.421 519.442 121.583 521.412 119.15L521.257 119.025ZM513.743 124.479C510.732 125.655 507.61 126.244 504.376 126.244V126.444C507.635 126.444 510.782 125.851 513.815 124.665L513.743 124.479ZM504.376 126.244C503.372 126.244 502.031 126.188 500.353 126.075L500.34 126.275C502.02 126.387 503.366 126.444 504.376 126.444V126.244ZM500.28 126.249L526.473 149.874L526.607 149.726L500.414 126.101L500.28 126.249ZM526.54 149.7H514.954V149.9H526.54V149.7ZM515.024 149.728L490.846 126.103L490.706 126.247L514.884 149.872L515.024 149.728ZM490.676 126.175V149.8H490.876V126.175H490.676ZM490.776 149.7H483.22V149.9H490.776V149.7ZM483.32 149.8V93.2688H483.12V149.8H483.32ZM483.22 93.3688H504.796V93.1688H483.22V93.3688ZM490.676 100.441V118.581H490.876V100.441H490.676ZM490.75 118.678C492.602 119.185 494.621 119.58 496.808 119.862L496.833 119.663C494.655 119.383 492.644 118.99 490.802 118.485L490.75 118.678ZM496.808 119.862C498.995 120.143 501.154 120.284 503.285 120.284V120.084C501.163 120.084 499.012 119.944 496.833 119.663L496.808 119.862ZM503.285 120.284C507.551 120.284 510.85 119.382 513.169 117.563L513.046 117.406C510.775 119.187 507.526 120.084 503.285 120.084V120.284ZM513.168 117.564C515.544 115.744 516.733 113.296 516.733 110.228H516.533C516.533 113.235 515.372 115.624 513.047 117.405L513.168 117.564ZM516.733 110.228C516.733 107.045 515.43 104.595 512.826 102.888L512.717 103.056C515.262 104.724 516.533 107.111 516.533 110.228H516.733ZM512.827 102.889C510.289 101.188 507.191 100.341 503.537 100.341V100.541C507.159 100.541 510.217 101.381 512.716 103.055L512.827 102.889ZM503.537 100.341H490.776V100.541H503.537V100.341ZM561.324 142.628V149.8H561.524V142.628H561.324ZM561.424 149.7H534.895V149.9H561.424V149.7ZM534.995 149.8V142.628H534.795V149.8H534.995ZM534.895 142.728H544.381V142.528H534.895V142.728ZM544.481 142.628V100.441H544.281V142.628H544.481ZM544.381 100.341H534.895V100.541H544.381V100.341ZM534.995 100.441V93.2688H534.795V100.441H534.995ZM534.895 93.3688H561.424V93.1688H534.895V93.3688ZM561.324 93.2688V100.441H561.524V93.2688H561.324ZM561.424 100.341H551.937V100.541H561.424V100.341ZM551.837 100.441V142.628H552.037V100.441H551.837ZM551.937 142.728H561.424V142.528H551.937V142.728ZM599.743 93.3109L626.02 149.842L626.201 149.758L599.924 93.2266L599.743 93.3109ZM626.111 149.7H617.044V149.9H626.111V149.7ZM617.136 149.76L611.259 136.26L611.076 136.34L616.952 149.84L617.136 149.76ZM611.167 136.2H584.806V136.4H611.167V136.2ZM584.715 136.26L578.754 149.76L578.937 149.84L584.898 136.34L584.715 136.26ZM578.846 149.7H569.779V149.9H578.846V149.7ZM569.869 149.842L596.146 93.3109L595.965 93.2266L569.688 149.758L569.869 149.842ZM596.056 93.3688H599.834V93.1688H596.056V93.3688ZM597.979 106.053L587.821 129.088L588.004 129.168L598.162 106.134L597.979 106.053ZM587.912 129.228H608.061V129.028H587.912V129.228ZM608.153 129.088L598.162 106.054L597.979 106.134L607.969 129.168L608.153 129.088ZM641.922 93.2688V142.628H642.122V93.2688H641.922ZM642.021 142.728H673V142.528H642.021V142.728ZM672.9 142.628V149.8H673.1V142.628H672.9ZM673 149.7H634.466V149.9H673V149.7ZM634.566 149.8V93.2688H634.366V149.8H634.566ZM634.466 93.3688H642.021V93.1688H634.466V93.3688ZM294.405 205.419H319.171V205.219H294.405V205.419ZM319.07 205.319V228.522H319.271V205.319H319.07ZM319.097 228.454C317.76 229.909 316.032 231.339 313.91 232.742L314.021 232.908C316.152 231.499 317.894 230.059 319.244 228.59L319.097 228.454ZM313.912 232.741C311.793 234.085 309.339 235.207 306.547 236.105L306.608 236.295C309.413 235.393 311.884 234.265 314.019 232.909L313.912 232.741ZM306.548 236.104C303.817 236.945 300.804 237.366 297.511 237.366V237.566C300.821 237.566 303.854 237.143 306.607 236.296L306.548 236.104ZM297.511 237.366C293.269 237.366 289.365 236.608 285.796 235.095L285.718 235.28C289.314 236.804 293.245 237.566 297.511 237.566V237.366ZM285.798 235.096C282.227 233.526 279.103 231.395 276.426 228.704L276.284 228.846C278.979 231.555 282.124 233.699 285.717 235.279L285.798 235.096ZM276.426 228.704C273.748 226.014 271.657 222.902 270.15 219.37L269.966 219.449C271.482 223.004 273.588 226.136 276.284 228.846L276.426 228.704ZM270.151 219.372C268.701 215.784 267.976 211.972 267.976 207.934H267.776C267.776 211.997 268.505 215.834 269.966 219.447L270.151 219.372ZM267.976 207.934C267.976 203.897 268.701 200.113 270.151 196.582L269.966 196.506C268.505 200.062 267.776 203.872 267.776 207.934H267.976ZM270.151 196.582C271.657 192.994 273.748 189.855 276.426 187.164L276.284 187.023C273.588 189.733 271.482 192.893 269.966 196.505L270.151 196.582ZM276.426 187.164C279.103 184.474 282.226 182.372 285.796 180.858L285.718 180.674C282.125 182.197 278.98 184.314 276.284 187.023L276.426 187.164ZM285.798 180.857C289.366 179.288 293.27 178.503 297.511 178.503V178.303C293.245 178.303 289.313 179.093 285.717 180.674L285.798 180.857ZM297.511 178.503C301.588 178.503 304.904 179.065 307.461 180.182L307.541 179.999C304.95 178.867 301.604 178.303 297.511 178.303V178.503ZM307.462 180.183C310.083 181.303 312.368 182.76 314.318 184.552L314.453 184.404C312.485 182.596 310.181 181.128 307.54 179.999L307.462 180.183ZM314.285 184.478V192.831H314.485V184.478H314.285ZM314.444 192.751C313.212 191.85 311.812 190.865 310.244 189.796L310.131 189.961C311.698 191.029 313.096 192.013 314.326 192.912L314.444 192.751ZM310.245 189.796C308.726 188.722 306.927 187.79 304.85 187L304.779 187.187C306.844 187.972 308.627 188.897 310.13 189.96L310.245 189.796ZM304.853 187.002C302.823 186.151 300.375 185.728 297.511 185.728V185.928C300.356 185.928 302.777 186.349 304.776 187.186L304.853 187.002ZM297.511 185.728C293.297 185.728 289.53 186.688 286.211 188.61L286.311 188.783C289.597 186.881 293.329 185.928 297.511 185.928V185.728ZM286.211 188.61C282.893 190.532 280.278 193.189 278.366 196.579L278.541 196.677C280.435 193.318 283.025 190.687 286.311 188.783L286.211 188.61ZM278.367 196.578C276.454 199.914 275.499 203.7 275.499 207.934H275.699C275.699 203.731 276.647 199.98 278.54 196.678L278.367 196.578ZM275.499 207.934C275.499 212.169 276.454 215.955 278.367 219.29L278.54 219.191C276.647 215.889 275.699 212.138 275.699 207.934H275.499ZM278.367 219.29C280.278 222.624 282.893 225.28 286.21 227.258L286.312 227.086C283.025 225.126 280.435 222.495 278.54 219.191L278.367 219.29ZM286.211 227.258C289.53 229.181 293.297 230.141 297.511 230.141V229.941C293.329 229.941 289.597 228.988 286.311 227.085L286.211 227.258ZM297.511 230.141C300.37 230.141 302.677 229.859 304.426 229.292L304.364 229.102C302.643 229.66 300.36 229.941 297.511 229.941V230.141ZM304.428 229.291C306.169 228.671 307.549 227.992 308.567 227.253L308.45 227.091C307.453 227.815 306.091 228.486 304.361 229.103L304.428 229.291ZM308.57 227.251C309.578 226.463 310.39 225.815 311.007 225.309L310.88 225.154C310.265 225.66 309.454 226.306 308.447 227.093L308.57 227.251ZM311.043 225.232L311.127 212.069L310.927 212.068L310.843 225.231L311.043 225.232ZM311.027 211.969H294.405V212.169H311.027V211.969ZM294.505 212.069V205.319H294.305V212.069H294.505ZM351.62 179.769C354.853 179.769 357.946 180.385 360.9 181.617L360.977 181.433C357.998 180.19 354.879 179.569 351.62 179.569V179.769ZM360.902 181.618C363.851 182.792 366.271 184.637 368.162 187.154L368.322 187.034C366.408 184.488 363.959 182.62 360.976 181.432L360.902 181.618ZM368.164 187.156C370.106 189.609 371.081 192.764 371.081 196.628H371.281C371.281 192.73 370.297 189.528 368.321 187.032L368.164 187.156ZM371.081 196.628C371.081 200.095 370.08 203.025 368.082 205.424L368.235 205.552C370.267 203.113 371.281 200.136 371.281 196.628H371.081ZM368.081 205.425C366.133 207.829 363.629 209.648 360.565 210.879L360.64 211.065C363.733 209.821 366.266 207.983 368.236 205.55L368.081 205.425ZM360.566 210.879C357.556 212.055 354.434 212.644 351.2 212.644V212.844C354.459 212.844 357.605 212.251 360.639 211.065L360.566 210.879ZM351.2 212.644C350.196 212.644 348.855 212.588 347.177 212.475L347.164 212.675C348.844 212.787 350.189 212.844 351.2 212.844V212.644ZM347.103 212.649L373.297 236.274L373.43 236.126L347.237 212.501L347.103 212.649ZM373.363 236.1H361.778V236.3H373.363V236.1ZM361.848 236.128L337.67 212.503L337.53 212.647L361.708 236.272L361.848 236.128ZM337.5 212.575V236.2H337.7V212.575H337.5ZM337.6 236.1H330.044V236.3H337.6V236.1ZM330.144 236.2V179.669H329.944V236.2H330.144ZM330.044 179.769H351.62V179.569H330.044V179.769ZM337.5 186.841V204.981H337.7V186.841H337.5ZM337.573 205.078C339.425 205.585 341.445 205.98 343.632 206.262L343.657 206.063C341.478 205.783 339.468 205.39 337.626 204.885L337.573 205.078ZM343.632 206.262C345.818 206.543 347.977 206.684 350.109 206.684V206.484C347.986 206.484 345.836 206.344 343.657 206.063L343.632 206.262ZM350.109 206.684C354.375 206.684 357.674 205.782 359.993 203.963L359.869 203.806C357.599 205.587 354.35 206.484 350.109 206.484V206.684ZM359.992 203.964C362.368 202.144 363.557 199.696 363.557 196.628H363.357C363.357 199.635 362.196 202.024 359.87 203.805L359.992 203.964ZM363.557 196.628C363.557 193.445 362.254 190.995 359.65 189.288L359.54 189.456C362.086 191.124 363.357 193.511 363.357 196.628H363.557ZM359.651 189.289C357.113 187.588 354.014 186.741 350.361 186.741V186.941C353.983 186.941 357.041 187.781 359.54 189.455L359.651 189.289ZM350.361 186.741H337.6V186.941H350.361V186.741ZM402.119 178.503C406.36 178.503 410.264 179.288 413.832 180.857L413.912 180.674C410.317 179.093 406.385 178.303 402.119 178.303V178.503ZM413.833 180.858C417.404 182.372 420.527 184.474 423.204 187.164L423.346 187.023C420.65 184.314 417.505 182.197 413.911 180.674L413.833 180.858ZM423.204 187.164C425.881 189.855 427.944 192.993 429.395 196.581L429.58 196.506C428.12 192.894 426.042 189.733 423.346 187.023L423.204 187.164ZM429.395 196.583C430.901 200.114 431.654 203.897 431.654 207.934H431.854C431.854 203.872 431.096 200.061 429.579 196.505L429.395 196.583ZM431.654 207.934C431.654 211.972 430.901 215.783 429.395 219.371L429.58 219.448C431.096 215.835 431.854 211.997 431.854 207.934H431.654ZM429.395 219.371C427.945 222.903 425.881 226.014 423.204 228.704L423.346 228.846C426.042 226.136 428.12 223.003 429.58 219.447L429.395 219.371ZM423.204 228.704C420.527 231.395 417.403 233.526 413.832 235.096L413.912 235.279C417.506 233.699 420.65 231.555 423.346 228.846L423.204 228.704ZM413.833 235.095C410.265 236.608 406.36 237.366 402.119 237.366V237.566C406.385 237.566 410.316 236.804 413.911 235.28L413.833 235.095ZM402.119 237.366C397.877 237.366 393.973 236.608 390.405 235.095L390.327 235.28C393.922 236.804 397.853 237.566 402.119 237.566V237.366ZM390.406 235.096C386.835 233.526 383.711 231.395 381.034 228.704L380.892 228.846C383.588 231.555 386.732 233.699 390.325 235.279L390.406 235.096ZM381.034 228.704C378.356 226.014 376.265 222.902 374.758 219.37L374.574 219.449C376.091 223.004 378.196 226.136 380.892 228.846L381.034 228.704ZM374.759 219.372C373.309 215.784 372.584 211.972 372.584 207.934H372.384C372.384 211.997 373.114 215.834 374.574 219.447L374.759 219.372ZM372.584 207.934C372.584 203.897 373.309 200.113 374.759 196.582L374.574 196.506C373.114 200.062 372.384 203.872 372.384 207.934H372.584ZM374.759 196.582C376.265 192.994 378.357 189.855 381.034 187.164L380.892 187.023C378.196 189.733 376.09 192.893 374.574 196.505L374.759 196.582ZM381.034 187.164C383.711 184.474 386.834 182.372 390.405 180.858L390.327 180.674C386.733 182.197 383.588 184.314 380.892 187.023L381.034 187.164ZM390.406 180.857C393.974 179.288 397.878 178.503 402.119 178.503V178.303C397.853 178.303 393.921 179.093 390.325 180.674L390.406 180.857ZM402.119 185.728C397.905 185.728 394.138 186.688 390.819 188.61L390.919 188.783C394.205 186.881 397.937 185.928 402.119 185.928V185.728ZM390.819 188.61C387.501 190.532 384.886 193.189 382.975 196.579L383.149 196.677C385.043 193.318 387.633 190.687 390.919 188.783L390.819 188.61ZM382.975 196.578C381.062 199.914 380.107 203.7 380.107 207.934H380.307C380.307 203.731 381.255 199.98 383.148 196.678L382.975 196.578ZM380.107 207.934C380.107 212.169 381.062 215.955 382.975 219.29L383.148 219.191C381.255 215.889 380.307 212.138 380.307 207.934H380.107ZM382.975 219.29C384.886 222.624 387.501 225.28 390.818 227.258L390.92 227.086C387.633 225.126 385.043 222.495 383.148 219.191L382.975 219.29ZM390.819 227.258C394.138 229.181 397.905 230.141 402.119 230.141V229.941C397.937 229.941 394.205 228.988 390.919 227.085L390.819 227.258ZM402.119 230.141C406.332 230.141 410.1 229.181 413.419 227.258L413.318 227.085C410.033 228.988 406.301 229.941 402.119 229.941V230.141ZM413.42 227.258C416.737 225.28 419.351 222.624 421.263 219.29L421.089 219.191C419.195 222.495 416.605 225.126 413.317 227.086L413.42 227.258ZM421.263 219.29C423.175 215.955 424.13 212.169 424.13 207.934H423.93C423.93 212.138 422.983 215.889 421.089 219.191L421.263 219.29ZM424.13 207.934C424.13 203.7 423.175 199.914 421.263 196.578L421.089 196.678C422.983 199.98 423.93 203.731 423.93 207.934H424.13ZM421.263 196.579C419.352 193.189 416.736 190.532 413.419 188.61L413.318 188.783C416.605 190.687 419.195 193.318 421.089 196.677L421.263 196.579ZM413.419 188.61C410.1 186.688 406.332 185.728 402.119 185.728V185.928C406.301 185.928 410.033 186.881 413.318 188.783L413.419 188.61ZM488.869 179.5V213.841H489.069V179.5H488.869ZM488.869 213.841C488.869 218.72 487.837 222.921 485.777 226.446L485.949 226.547C488.031 222.986 489.069 218.749 489.069 213.841H488.869ZM485.777 226.447C483.771 229.919 481.042 232.577 477.589 234.424L477.683 234.601C481.17 232.735 483.926 230.05 485.95 226.547L485.777 226.447ZM477.589 234.424C474.135 236.272 470.206 237.197 465.799 237.197V237.397C470.234 237.397 474.197 236.466 477.683 234.601L477.589 234.424ZM465.799 237.197C461.448 237.197 457.518 236.272 454.008 234.424L453.915 234.601C457.456 236.466 461.418 237.397 465.799 237.397V237.197ZM454.008 234.424C450.555 232.577 447.798 229.918 445.736 226.446L445.564 226.548C447.644 230.051 450.427 232.736 453.914 234.601L454.008 234.424ZM445.737 226.447C443.732 222.922 442.728 218.721 442.728 213.841H442.528C442.528 218.748 443.538 222.985 445.563 226.546L445.737 226.447ZM442.728 213.841V179.5H442.528V213.841H442.728ZM442.628 179.6H450.183V179.4H442.628V179.6ZM450.083 179.5V213.588H450.283V179.5H450.083ZM450.083 213.588C450.083 217.424 450.785 220.537 452.196 222.92L452.368 222.818C450.981 220.476 450.283 217.401 450.283 213.588H450.083ZM452.197 222.921C453.662 225.299 455.579 227.029 457.95 228.107L458.032 227.925C455.701 226.865 453.813 225.163 452.367 222.816L452.197 222.921ZM457.952 228.108C460.372 229.126 462.988 229.634 465.799 229.634V229.434C463.012 229.434 460.423 228.93 458.03 227.923L457.952 228.108ZM465.801 229.634C468.611 229.578 471.198 229.041 473.562 228.023L473.483 227.839C471.145 228.846 468.583 229.378 465.797 229.434L465.801 229.634ZM473.563 228.023C475.988 226.945 477.907 225.244 479.316 222.921L479.145 222.817C477.757 225.106 475.869 226.78 473.482 227.84L473.563 228.023ZM479.316 222.921C480.784 220.538 481.514 217.424 481.514 213.588H481.314C481.314 217.401 480.588 220.474 479.146 222.816L479.316 222.921ZM481.514 213.588V179.5H481.314V213.588H481.514ZM481.414 179.6H488.969V179.4H481.414V179.6ZM527.295 179.769C530.525 179.769 533.616 180.524 536.569 182.036L536.66 181.858C533.68 180.332 530.558 179.569 527.295 179.569V179.769ZM536.57 182.037C539.52 183.491 541.942 185.617 543.835 188.415L544.001 188.303C542.088 185.477 539.641 183.328 536.658 181.857L536.57 182.037ZM543.836 188.417C545.782 191.154 546.756 194.452 546.756 198.316H546.956C546.956 194.417 545.972 191.077 543.999 188.301L543.836 188.417ZM546.756 198.316C546.756 201.615 545.839 204.661 544.002 207.458L544.169 207.567C546.027 204.739 546.956 201.654 546.956 198.316H546.756ZM544.002 207.458C542.165 210.255 539.659 212.523 536.482 214.259L536.578 214.435C539.781 212.684 542.313 210.395 544.169 207.567L544.002 207.458ZM536.483 214.259C533.364 215.938 529.883 216.778 526.036 216.778V216.978C529.913 216.978 533.428 216.131 536.578 214.435L536.483 214.259ZM526.036 216.778C523.188 216.778 520.565 216.498 518.167 215.937L518.122 216.132C520.537 216.696 523.175 216.978 526.036 216.978V216.778ZM518.17 215.938C515.822 215.32 513.926 214.675 512.478 214.003L512.394 214.184C513.856 214.863 515.765 215.512 518.119 216.131L518.17 215.938ZM512.336 214.094V236.2H512.536V214.094H512.336ZM512.436 236.1H504.88V236.3H512.436V236.1ZM504.98 236.2V179.669H504.78V236.2H504.98ZM504.88 179.769H527.295V179.569H504.88V179.769ZM512.336 186.841V207.175H512.536V186.841H512.336ZM512.398 207.268C513.916 207.889 515.88 208.481 518.29 209.044L518.335 208.85C515.931 208.288 513.978 207.698 512.474 207.082L512.398 207.268ZM518.292 209.045C520.762 209.552 523.259 209.806 525.784 209.806V209.606C523.272 209.606 520.789 209.354 518.333 208.849L518.292 209.045ZM525.784 209.806C530.055 209.806 533.357 208.705 535.676 206.488L535.538 206.343C533.267 208.514 530.021 209.606 525.784 209.606V209.806ZM535.676 206.488C538.045 204.22 539.233 201.494 539.233 198.316H539.033C539.033 201.437 537.869 204.112 535.538 206.343L535.676 206.488ZM539.233 198.316C539.233 195.877 538.555 193.801 537.196 192.094L537.04 192.219C538.367 193.886 539.033 195.917 539.033 198.316H539.233ZM537.197 192.096C535.899 190.393 534.177 189.089 532.036 188.183L531.958 188.367C534.07 189.261 535.763 190.544 537.038 192.217L537.197 192.096ZM532.038 188.184C529.898 187.222 527.617 186.741 525.197 186.741V186.941C527.59 186.941 529.842 187.416 531.956 188.366L532.038 188.184ZM525.197 186.741H512.436V186.941H525.197V186.741Z" fill="white" mask="url(#path-1-outside-1_205_292)"/>
</svg>