<?xml version="1.0" encoding="UTF-8" standalone="no"?><!DOCTYPE svg PUBLIC "-//W3C//DTD SVG 1.1//EN" "http://www.w3.org/Graphics/SVG/1.1/DTD/svg11.dtd"><svg width="100%" height="100%" viewBox="0 0 70 40" version="1.1" xmlns="http://www.w3.org/2000/svg" xmlns:xlink="http://www.w3.org/1999/xlink" xml:space="preserve" xmlns:serif="http://www.serif.com/" style="fill-rule:evenodd;clip-rule:evenodd;stroke-linejoin:round;stroke-miterlimit:2;"><path d="M67.667,9c-0.94,-2.909 -2.465,-5.163 -4.541,-6.72c-2.025,-1.514 -4.49,-2.28 -7.328,-2.28l-42.582,0c-2.838,0 -5.303,0.766 -7.328,2.288c-2.076,1.557 -3.609,3.82 -4.55,6.73c-0.905,2.839 -1.338,6.328 -1.338,10.982l-0,18c-0,0.469 0.042,0.818 0.136,1.098c0.093,0.29 0.245,0.52 0.457,0.672c0.203,0.153 0.45,0.23 0.729,0.23l54.476,0c2.838,0 5.303,-0.766 7.328,-2.288c2.076,-1.557 3.61,-3.82 4.55,-6.73c0.906,-2.84 1.338,-6.329 1.338,-10.982c-0.008,-4.653 -0.432,-8.15 -1.347,-11Zm-18.13,19.797c-0.729,-2.272 -0.992,-5.275 -0.992,-8.797c-0,-3.522 0.263,-6.525 0.992,-8.796c0.99,-3.08 2.88,-4.654 6.26,-4.654c3.381,0 5.296,1.574 6.295,4.654c0.729,2.271 0.992,5.274 0.992,8.796c-0,3.522 -0.263,6.525 -0.992,8.796c-0.99,3.08 -2.914,4.654 -6.294,4.654c-3.38,0 -5.27,-1.574 -6.261,-4.654l0,0.001Zm-42.615,-0.001c-0.729,-2.271 -0.992,-5.274 -0.992,-8.796c0,-3.522 0.262,-6.525 0.99,-8.796c0.992,-3.08 2.881,-4.654 6.296,-4.654c4.77,0 6.59,3.148 6.59,10.081l0,0.034l-4.803,0l0,-0.076c0,-3.812 -0.5,-5.207 -1.923,-5.207c-0.923,0 -1.491,0.51 -1.855,1.617c-0.432,1.318 -0.5,3.81 -0.5,7c0,3.37 0.101,5.828 0.533,7.18c0.33,0.954 0.797,1.43 1.56,1.43c1.321,0 1.889,-1.43 1.889,-5.274l4.803,0c0,7.222 -1.889,10.114 -6.59,10.114c-3.119,0 -5,-1.573 -6,-4.653l0.002,0Zm26.06,-0.493l0,4.832l-10.462,0l0,-26.27l4.668,0l0,21.438l5.794,0Zm7.159,-16.606l0,5.887l5.761,0l0,4.832l-5.76,0l0,5.887l6.09,0l0,4.832l-10.76,0l0,-26.27l10.76,0l0,4.832l-6.091,0Zm17.546,15.16c0.5,-1.54 0.559,-4.254 0.559,-6.857c0,-2.603 -0.068,-5.317 -0.56,-6.857c-0.363,-1.14 -0.956,-1.76 -1.888,-1.76c-0.898,0 -1.492,0.62 -1.856,1.76c-0.5,1.54 -0.593,4.254 -0.593,6.857c0,2.603 0.102,5.317 0.593,6.857c0.364,1.14 0.958,1.76 1.856,1.76c0.923,-0.008 1.525,-0.629 1.889,-1.76Z" style="fill:#fff;fill-rule:nonzero;"/></svg>