<?xml version="1.0" encoding="UTF-8" standalone="no"?><!DOCTYPE svg PUBLIC "-//W3C//DTD SVG 1.1//EN" "http://www.w3.org/Graphics/SVG/1.1/DTD/svg11.dtd"><svg width="100%" height="100%" viewBox="0 0 71 30" version="1.1" xmlns="http://www.w3.org/2000/svg" xmlns:xlink="http://www.w3.org/1999/xlink" xml:space="preserve" xmlns:serif="http://www.serif.com/" style="fill-rule:evenodd;clip-rule:evenodd;stroke-linejoin:round;stroke-miterlimit:2;"><g><path d="M71,0.719l-4.097,-0l0,22.524l4.097,0l-0,-22.524Zm-7.141,-0l-4.094,-0l0,22.524l4.094,0l-0,-22.524Zm-9.209,-0.219c-0.347,-0.002 -0.69,0.066 -1.011,0.198c-0.32,0.132 -0.61,0.326 -0.853,0.571c-0.243,0.246 -0.433,0.536 -0.561,0.856c-0.127,0.319 -0.189,0.66 -0.181,1.003c-0.011,0.347 0.048,0.693 0.174,1.016c0.126,0.324 0.317,0.619 0.561,0.868c0.244,0.249 0.535,0.448 0.858,0.583c0.323,0.135 0.67,0.205 1.02,0.205c0.35,-0 0.697,-0.07 1.02,-0.205c0.323,-0.135 0.614,-0.334 0.858,-0.583c0.244,-0.249 0.435,-0.544 0.561,-0.868c0.126,-0.323 0.185,-0.669 0.174,-1.016c0.006,-0.343 -0.057,-0.685 -0.186,-1.004c-0.129,-0.32 -0.321,-0.61 -0.565,-0.855c-0.244,-0.245 -0.535,-0.439 -0.856,-0.571c-0.321,-0.132 -0.665,-0.199 -1.013,-0.198Zm2.07,7.587l-4.096,0l-0,15.156l4.096,0l0,-15.156Zm-14.312,3.394c2.418,-0 3.925,1.861 3.925,4.177c0,2.317 -1.507,4.175 -3.925,4.175c-2.322,0 -3.906,-1.784 -3.906,-4.175c-0,-2.39 1.582,-4.177 3.906,-4.177Zm0.753,-3.801c-2.087,0 -3.547,0.845 -4.535,2.08l0,-1.673l-4,0l0,21.413l4.077,0l0,-7.836c0.989,1.172 2.432,1.97 4.472,1.97c4.19,-0 7.359,-3.424 7.359,-7.976c0,-4.551 -3.169,-7.978 -7.375,-7.978l0.002,0Zm-10.906,1.454c-1.967,-0.984 -4.146,-1.478 -6.349,-1.44c-4.002,0 -6.418,1.847 -6.418,4.959c0,2.582 1.742,4.115 5.245,4.598l1.239,0.172c1.759,0.252 2.529,0.659 2.529,1.394c-0,0.891 -0.911,1.424 -2.81,1.424c-1.84,0.049 -3.651,-0.471 -5.179,-1.487l-1.612,3.099c1.979,1.39 4.693,1.781 6.766,1.781c4.417,-0 6.981,-2.016 6.981,-5.145c0,-2.565 -1.836,-4.035 -5.132,-4.535l-1.347,-0.205c-1.38,-0.202 -2.484,-0.421 -2.484,-1.298c0,-0.82 0.787,-1.366 2.338,-1.366c1.712,0.016 3.641,0.642 4.85,1.235l1.383,-3.186Z" style="fill:#fff;fill-rule:nonzero;"/><path d="M16.253,13.219c-0.151,-1.289 -0.524,-2.542 -1.104,-3.705c-0.334,-0.642 -0.657,-1.295 -1.024,-1.913c-0.28,-0.461 -0.591,-0.904 -0.93,-1.325c-1.078,-1.39 -2.385,-2.591 -3.865,-3.552c-1.185,-0.772 -2.465,-1.39 -3.809,-1.839c-0.276,-0.09 -1.079,-0.339 -1.325,-0.232l-0.58,0.888c0,0 4.094,2.65 4.069,6.011c-0,0.188 -0.141,0.156 -0.243,0.183c-0.875,0.221 -1.769,0.388 -2.622,0.678c-1.065,0.364 -2.023,0.98 -2.793,1.793c-0.769,0.814 -1.327,1.801 -1.624,2.876c-0.383,1.309 -0.483,2.683 -0.295,4.033c0.168,1.024 0.536,2.007 1.082,2.893c0.388,0.653 0.863,1.25 1.413,1.776c0.949,0.924 2.133,1.578 3.426,1.891c0.94,0.242 1.912,0.334 2.882,0.273c1.177,-0.093 2.314,-0.468 3.312,-1.093c1.812,-1.113 3.12,-2.874 3.652,-4.918c0.446,-1.531 0.575,-3.136 0.378,-4.718Zm-9.148,8.448c-2.614,0.164 -5.059,-2.459 -5.062,-4.812c-0.007,-0.105 0.007,-0.21 0.043,-0.31c0.036,-0.099 0.092,-0.19 0.165,-0.267c0.072,-0.076 0.16,-0.138 0.258,-0.179c0.098,-0.042 0.203,-0.064 0.309,-0.064c0.439,0 0.453,0.348 0.552,0.752c0.42,2.019 1.544,3.147 3.509,3.53c0.442,0.087 0.894,0.145 0.908,0.607c0.014,0.573 -0.635,0.751 -0.682,0.743Z" style="fill:#fff;"/></g></svg>