<svg width="158" height="43" viewBox="0 0 158 43" fill="none" xmlns="http://www.w3.org/2000/svg">
<path d="M81.3032 14.4135H69.8155V21.0814H50.6961V14.0925L55.3836 9.30514H81.2051V0.0859375H51.7757L41.4136 10.6639V30.3006H72.0207L81.3032 21.0814V14.4135Z" fill="white"/>
<path d="M28.5751 10.5947H18.1149V19.8999H28.5751V23.1278V23.8674V26.585L22.3059 32.7885L21.3707 33.7173H0V42.9422H12.0881H12.5326H25.2384L37.8577 30.4091V23.8674V23.1278V10.5947H28.5751Z" fill="white"/>
<path d="M97.1438 0V6.92013C97.1438 8.16427 96.7975 9.13893 96.1047 9.83267C95.412 10.5321 94.4479 10.8819 93.2184 10.8819C92.3351 10.8819 91.6135 10.7213 91.0594 10.3945C90.5052 10.0677 90.1184 9.6148 89.899 9.02427C89.6797 8.43373 89.645 7.75147 89.7836 6.97173L91.4692 6.66213C91.3364 7.59093 91.4115 8.27893 91.6828 8.71467C91.9541 9.1504 92.4679 9.374 93.2184 9.374C94.0381 9.374 94.598 9.13893 94.9098 8.6688C95.2215 8.19867 95.3774 7.51067 95.3774 6.59907V0H97.1438Z" fill="white"/>
<path d="M109.128 0V6.61053C109.128 8.02667 108.753 9.09307 108.002 9.80973C107.252 10.5264 106.155 10.8819 104.718 10.8819C103.303 10.8819 102.212 10.5264 101.456 9.80973C100.7 9.09307 100.319 8.02667 100.319 6.61053V0H102.068V6.3984C102.068 7.40747 102.287 8.1528 102.72 8.64013C103.153 9.12747 103.823 9.36827 104.718 9.36827C105.624 9.36827 106.294 9.12173 106.727 8.64013C107.16 8.1528 107.379 7.40747 107.379 6.3984V0H109.128Z" fill="white"/>
<path d="M116.096 0C116.869 0 117.539 0.1376 118.099 0.407067C118.659 0.676533 119.098 1.06067 119.415 1.55947C119.733 2.05827 119.888 2.66027 119.888 3.35973C119.888 4.05347 119.733 4.64973 119.415 5.15427C119.098 5.6588 118.659 6.04293 118.099 6.31813C117.539 6.5876 116.869 6.7252 116.096 6.7252H113.694V10.7213H111.945V0H116.096ZM115.819 5.2288C116.592 5.2288 117.164 5.06827 117.527 4.7472C117.891 4.42613 118.076 3.96747 118.076 3.35973C118.076 2.74053 117.891 2.27613 117.527 1.95507C117.164 1.634 116.592 1.47347 115.819 1.47347H113.694V5.22307H115.819V5.2288Z" fill="white"/>
<path d="M123.941 0V10.7156H122.192V0H123.941Z" fill="white"/>
<path d="M135.504 0V1.4964H131.809V10.7213H130.06V1.4964H126.365V0H135.504Z" fill="white"/>
<path d="M137.922 10.7156V0H145.739V1.4964H139.672V4.58093H144.411V6.04293H139.672V9.22493H145.964V10.7213H137.922V10.7156Z" fill="white"/>
<path d="M153.376 0C154.531 0 155.448 0.286667 156.13 0.86C156.811 1.43333 157.151 2.20733 157.151 3.182C157.151 4.19107 156.811 4.96507 156.13 5.50973C155.448 6.0544 154.531 6.3296 153.376 6.3296L153.214 6.42707H150.715V10.7156H148.983V0H153.376ZM153.243 4.988C153.953 4.988 154.479 4.84467 154.819 4.558C155.16 4.27133 155.333 3.82987 155.333 3.2336C155.333 2.6488 155.16 2.21307 154.819 1.92067C154.473 1.62827 153.947 1.48493 153.243 1.48493H150.709V4.988H153.243ZM154.271 5.34347L157.786 10.7213H155.777L152.77 6.02573L154.271 5.34347Z" fill="white"/>
<path d="M89.4141 26.7742L93.4839 16.0586H95.5794L99.6491 26.7742H97.8019L95.0252 19.1087L94.5345 17.5665H94.4883L94.0323 19.0743L91.2094 26.7742H89.4141ZM91.5846 23.9649V22.5545H97.4209V23.9649H91.5846Z" fill="white"/>
<path d="M110.404 16.0586V26.7742H108.326L104.158 20.0203L103.113 18.1226H103.096L103.159 19.8598V26.7742H101.554V16.0586H103.615L107.766 22.7953L108.828 24.7274H108.845L108.782 22.973V16.0586H110.404Z" fill="white"/>
<path d="M117.4 16.0586C119.092 16.0586 120.408 16.523 121.349 17.4461C122.29 18.3691 122.763 19.6935 122.763 21.4135C122.763 23.1335 122.29 24.4579 121.349 25.3867C120.408 26.3098 119.092 26.7742 117.4 26.7742H113.59V16.0586H117.4ZM117.4 25.3007C118.543 25.3007 119.421 24.9625 120.027 24.2859C120.633 23.6094 120.933 22.6519 120.933 21.4193C120.933 20.1866 120.633 19.2291 120.027 18.5526C119.421 17.8761 118.549 17.5378 117.4 17.5378H115.339V25.3007H117.4V25.3007Z" fill="white"/>
<path d="M136.306 16.0586V17.555H132.611V26.7742H130.862V17.555H127.168V16.0586H136.306Z" fill="white"/>
<path d="M139.822 16.0586V26.7742H138.073V16.0586H139.822ZM146.033 20.6051V22.1015H138.95V20.6051H146.033ZM146.916 16.0586V26.7742H145.15V16.0586H146.916Z" fill="white"/>
<path d="M149.774 26.7742V16.0586H157.59V17.555H151.523V20.6395H156.262V22.1015H151.523V25.2835H157.815V26.7799H149.774V26.7742Z" fill="white"/>
<path d="M95.0714 43.0003C94.0554 43.0003 93.1779 42.7767 92.439 42.3352C91.7001 41.8937 91.1228 41.2631 90.7072 40.4432C90.2916 39.6233 90.0837 38.6372 90.0837 37.4791C90.0837 36.3439 90.2973 35.3635 90.7303 34.5379C91.1632 33.718 91.7694 33.0816 92.5602 32.6287C93.3511 32.1815 94.2574 31.9521 95.285 31.9521C96.4049 31.9521 97.317 32.1585 98.0097 32.5713C98.7024 32.9841 99.2566 33.6205 99.6723 34.4863L98.0559 35.2488C97.8481 34.6525 97.5075 34.2053 97.0341 33.9072C96.5608 33.6091 95.9835 33.46 95.3081 33.46C94.6327 33.46 94.0438 33.6148 93.5358 33.9301C93.0278 34.2455 92.6353 34.7041 92.3524 35.3004C92.0696 35.9024 91.9252 36.6248 91.9252 37.4676C91.9252 38.3219 92.0522 39.05 92.3005 39.652C92.5487 40.254 92.9297 40.7127 93.4377 41.0223C93.9457 41.3376 94.5692 41.4924 95.3081 41.4924C95.7122 41.4924 96.0874 41.4408 96.4338 41.3376C96.7801 41.2344 97.0861 41.0853 97.3516 40.8847C97.6114 40.684 97.8192 40.4318 97.9635 40.1222C98.1079 39.8126 98.1829 39.4456 98.1829 39.0271V38.7175H95.0425V37.3071H99.7358V42.8283H98.4254L98.3272 40.6668L98.6563 40.8273C98.3965 41.5096 97.9635 42.0428 97.3574 42.4212C96.7455 42.8111 95.9835 43.0003 95.0714 43.0003Z" fill="white"/>
<path d="M104.273 32.1182V42.8338H102.524V32.1182H104.273Z" fill="white"/>
<path d="M111.552 32.1182C112.707 32.1182 113.625 32.4048 114.306 32.9782C114.987 33.5515 115.328 34.3255 115.328 35.3002C115.328 36.3092 114.987 37.0832 114.306 37.6279C113.625 38.1726 112.707 38.4478 111.552 38.4478L111.391 38.5452H108.891V42.8338H107.159V32.1182H111.552ZM111.42 37.1062C112.13 37.1062 112.655 36.9628 112.996 36.6762C113.336 36.3895 113.509 35.948 113.509 35.3518C113.509 34.767 113.336 34.3312 112.996 34.0388C112.649 33.7464 112.124 33.6031 111.42 33.6031H108.885V37.1119H111.42V37.1062ZM112.447 37.4616L115.963 42.8395H113.954L110.946 38.1439L112.447 37.4616Z" fill="white"/>
<path d="M117.516 42.8396L121.585 32.124H123.681L127.751 42.8396H125.903L123.127 35.1742L122.636 33.6319H122.59L122.134 35.1398L119.322 42.8396H117.516ZM119.692 40.0303V38.6199H125.528V40.0303H119.692Z" fill="white"/>
<path d="M137.137 33.6146H131.088V36.7335H135.827V38.2299H131.088V42.8395H129.338V32.1182H137.137V33.6146Z" fill="white"/>
<path d="M147.453 33.6146H141.403V36.7335H146.143V38.2299H141.403V42.8395H139.654V32.1182H147.453V33.6146Z" fill="white"/>
<path d="M149.959 42.8395V32.1182H157.775V33.6146H151.708V36.6991H156.447V38.1611H151.708V41.3431H158V42.8395H149.959Z" fill="white"/>
</svg>
